<svg id="Layer_1" data-name="Layer 1" xmlns="http://www.w3.org/2000/svg" viewBox="0 0 240 260"><defs><style>.cls-1{fill:none;}.cls-2{fill:#ff8551;}</style></defs><title>Artboard 1</title><rect class="cls-1" width="400" height="400"/><path class="cls-2" d="M187.75,164.2h-7.2v18.6a72,72,0,1,1,2-103.7l33.9-33.9A120,120,0,0,0,46.65,214.9a120.11,120.11,0,0,0,169.7,0c2.9-2.9,5.6-6,8.2-9.1C223.45,191,217.25,164.2,187.75,164.2Z"/><path class="cls-2" d="M181.15,103.9h-57.8v47.7h64.4c18.2,0,32.3,8.1,40.7,22.4V157.6c0-15.4-4-28-11.8-37.5C208.15,109.6,195.55,103.9,181.15,103.9Z"/></svg>