<svg height="32" viewBox="0 0 32 32" width="32" xmlns="http://www.w3.org/2000/svg"><g fill="#3023ae" fill-rule="evenodd"><path d="m20.1213203 6.22182541c1.5620972-1.56209717 4.0947571-1.56209717 5.6568543 0 1.5620972 1.56209716 1.5620972 4.09475709 0 5.65685429l-9.8994949 9.8994949c-1.5620972 1.5620972-4.0947571 1.5620972-5.6568543 0-1.51002725-1.5100273-1.5603615-3.9269915-.1510027-5.4974812l.1510027-.1593731zm-8.4852813 11.31370849c-.7810486.7810486-.7810486 2.0473785 0 2.8284271s2.0473785.7810486 2.8284271 0l9.8994949-9.8994949c.7810486-.78104859.7810486-2.04737855 0-2.82842713s-2.0473785-.78104858-2.8284271 0z" fill-rule="nonzero"/><g transform="matrix(-1 0 0 -1 12 26)"><rect height="6" rx="1" width="2" x="4"/><rect height="2" rx="1" width="6"/></g></g></svg>