<svg width="32" height="32" viewBox="0 0 32 32" version="1.1" xmlns="http://www.w3.org/2000/svg" xmlns:xlink="http://www.w3.org/1999/xlink"><title>share</title><desc>Created with Sketch.</desc><g id="share" stroke="none" stroke-width="1" fill="none" fill-rule="evenodd"><path d="M9,15 C7.8954305,15 7,15.8954305 7,17 L7,23 C7,24.1045695 7.8954305,25 9,25 L23,25 C24.1045695,25 25,24.1045695 25,23 L25,17 C25,15.8954305 24.1045695,15 23,15 L9,15 Z M9,13 L23,13 C25.209139,13 27,14.790861 27,17 L27,23 C27,25.209139 25.209139,27 23,27 L9,27 C6.790861,27 5,25.209139 5,23 L5,17 C5,14.790861 6.790861,13 9,13 Z" id="Rectangle-3" fill="#3023AE" fill-rule="nonzero"/><rect id="Rectangle-4" fill="#3023AE" x="15" y="5" width="2" height="15" rx="1"/><g id="Group-2" transform="translate(16.000000, 8.000000) rotate(-45.000000) translate(-16.000000, -8.000000) translate(13.000000, 5.000000)" fill="#3023AE"><rect id="Rectangle-4-Copy" x="4" y="0" width="2" height="6" rx="1"/><rect id="Rectangle-4-Copy-2" x="0" y="0" width="6" height="2" rx="1"/></g></g></svg>