<?xml version="1.0" encoding="UTF-8"?>
<svg width="512px" height="512px" viewBox="0 0 512 512" version="1.1" xmlns="http://www.w3.org/2000/svg" xmlns:xlink="http://www.w3.org/1999/xlink">
    <!-- Generator: Sketch 48.2 (47327) - http://www.bohemiancoding.com/sketch -->
    <title>Logo</title>
    <desc>Created with Sketch.</desc>
    <defs>
        <linearGradient x1="0%" y1="0%" x2="101.999998%" y2="100.999999%" id="linearGradient-1">
            <stop stop-color="#3023AE" offset="0%"></stop>
            <stop stop-color="#C86DD7" offset="100%"></stop>
        </linearGradient>
        <linearGradient x1="100%" y1="100%" x2="0%" y2="0%" id="linearGradient-2">
            <stop stop-color="#FFFFFF" offset="0%"></stop>
            <stop stop-color="#F0F0F4" offset="100%"></stop>
        </linearGradient>
    </defs>
    <g id="Page-1" stroke="none" stroke-width="1" fill="none" fill-rule="evenodd">
        <g id="Logo">
            <g id="Group" transform="translate(22.000000, 51.000000)">
                <g id="Slide" transform="translate(212.312301, 166.860353) rotate(-5.000000) translate(-212.312301, -166.860353) translate(12.312301, 16.860353)">
                    <rect id="Combined-Shape" fill="url(#linearGradient-1)" x="0" y="0" width="400" height="300" rx="20"></rect>
                    <rect id="Rectangle" fill="url(#linearGradient-2)" x="30" y="41" width="340" height="218" rx="5"></rect>
                    <path d="M230,157 L246.18975,157 C247.67365,157 249.080888,157.659115 250.030857,158.799078 C251.798677,160.920462 251.512057,164.073286 249.390672,165.841106 L203.200922,204.332565 C201.346692,205.877756 198.653308,205.877756 196.799078,204.332565 L150.609328,165.841106 C149.469365,164.891137 148.81025,163.483899 148.81025,162 C148.81025,159.238576 151.048826,157 153.81025,157 L170,157 L170,103 C170,97.4771525 174.477153,93 180,93 L220,93 C225.522847,93 230,97.4771525 230,103 L230,157 Z" id="Combined-Shape" fill="url(#linearGradient-1)"></path>
                </g>
                <g id="Slide" transform="translate(256.312301, 242.860353) rotate(5.000000) translate(-256.312301, -242.860353) translate(56.312301, 92.860353)">
                    <rect id="Combined-Shape" fill="url(#linearGradient-1)" x="0" y="0" width="400" height="300" rx="20"></rect>
                    <rect id="Rectangle" fill="url(#linearGradient-2)" x="30" y="41" width="340" height="218" rx="5"></rect>
                    <path d="M230,157 L246.18975,157 C247.67365,157 249.080888,157.659115 250.030857,158.799078 C251.798677,160.920462 251.512057,164.073286 249.390672,165.841106 L203.200922,204.332565 C201.346692,205.877756 198.653308,205.877756 196.799078,204.332565 L150.609328,165.841106 C149.469365,164.891137 148.81025,163.483899 148.81025,162 C148.81025,159.238576 151.048826,157 153.81025,157 L170,157 L170,103 C170,97.4771525 174.477153,93 180,93 L220,93 C225.522847,93 230,97.4771525 230,103 L230,157 Z" id="Combined-Shape" fill="url(#linearGradient-1)"></path>
                </g>
            </g>
        </g>
    </g>
</svg>