<svg width="40" height="40" xmlns="http://www.w3.org/2000/svg"><defs><linearGradient x1="0%" y1="0%" x2="102%" y2="101%" id="a"><stop stop-color="#3023AE" offset="0%"/><stop stop-color="#C86DD7" offset="100%"/></linearGradient></defs><g fill-rule="nonzero" fill="none"><circle fill="url(#a)" cx="20" cy="20" r="20"/><path fill="#FFF" d="M25 12.5h4v10h-4z"/><path fill="#FFF" d="M27 28l-6-6h12zM14.086 15.032c-.576 0-1.03.136-1.361.41-.332.272-.498.634-.498 1.084 0 .45.203.807.608 1.073.406.265 1.343.579 2.81.94 1.469.362 2.609.904 3.42 1.627.811.723 1.217 1.778 1.217 3.165 0 1.386-.52 2.511-1.56 3.374S16.314 28 14.617 28c-2.45 0-4.655-.907-6.617-2.722l2.058-2.523c1.667 1.46 3.209 2.191 4.625 2.191.635 0 1.133-.136 1.494-.41.361-.272.542-.641.542-1.106a1.29 1.29 0 0 0-.575-1.106c-.384-.273-1.144-.55-2.28-.83-1.8-.428-3.116-.985-3.95-1.671-.833-.686-1.25-1.763-1.25-3.231s.527-2.6 1.582-3.397c1.055-.797 2.372-1.195 3.95-1.195 1.033 0 2.066.177 3.099.531 1.032.354 1.932.856 2.7 1.505l-1.749 2.523c-1.342-1.018-2.73-1.527-4.16-1.527z"/></g></svg>
